<?xml version="1.0" standalone="no"?>
<!DOCTYPE svg PUBLIC "-//W3C//DTD SVG 20010904//EN"
 "http://www.w3.org/TR/2001/REC-SVG-20010904/DTD/svg10.dtd">
<svg version="1.0" xmlns="http://www.w3.org/2000/svg"
 width="512.000000pt" height="512.000000pt" viewBox="0 0 512.000000 512.000000"
 preserveAspectRatio="xMidYMid meet">
<metadata>
Created by potrace 1.14, written by Peter Selinger 2001-2017
</metadata>
<g transform="translate(0.000000,512.000000) scale(0.100000,-0.100000)"
fill="#000000" stroke="none">
<path d="M340 2570 l0 -750 165 0 165 0 0 434 c0 239 3 437 8 439 4 3 31 -34
61 -81 30 -48 69 -109 86 -137 87 -137 327 -519 366 -582 l44 -73 158 0 157 0
0 750 0 750 -165 0 -165 0 -2 -445 -3 -445 -99 158 c-54 86 -180 286 -279 445
l-180 287 -159 0 -158 0 0 -750z"/>
<path d="M1822 2763 c3 -551 3 -559 26 -621 82 -228 265 -342 546 -342 165 1
260 28 372 106 98 69 154 152 185 273 18 68 19 116 19 608 l0 533 -165 0 -165
0 0 -504 c0 -299 -4 -525 -10 -557 -13 -70 -50 -123 -103 -151 -60 -33 -202
-32 -264 0 -53 28 -90 81 -103 151 -6 32 -10 258 -10 557 l0 504 -166 0 -165
0 3 -557z"/>
<path d="M3230 2570 l0 -750 166 0 166 0 -5 328 c-3 180 -10 365 -16 412 -6
47 -15 135 -21 195 -6 61 -12 124 -15 140 -8 49 64 -156 317 -897 l61 -178
121 0 121 0 57 168 c57 168 107 314 238 691 38 113 73 207 76 210 8 8 -11
-197 -37 -404 -16 -124 -23 -376 -14 -527 l7 -138 164 0 164 0 0 750 0 750
-198 0 -198 0 -154 -407 c-84 -225 -169 -450 -188 -501 -19 -51 -36 -91 -38
-90 -3 4 -63 162 -256 676 l-122 322 -198 0 -198 0 0 -750z"/>
</g>
</svg>
